<svg xmlns="http://www.w3.org/2000/svg" xmlns:xlink="http://www.w3.org/1999/xlink" width="1366" zoomAndPan="magnify" viewBox="0 0 1024.5 576" height="768" preserveAspectRatio="xMidYMid meet" version="1.0"><defs><filter x="0%" y="0%" width="100%" height="100%" id="ff265c3e12"><feColorMatrix values="0 0 0 0 1 0 0 0 0 1 0 0 0 0 1 0 0 0 1 0" color-interpolation-filters="sRGB"/></filter><clipPath id="83831db3b6"><path d="M 0 0.140625 L 1024 0.140625 L 1024 575.859375 L 0 575.859375 Z M 0 0.140625 " clip-rule="nonzero"/></clipPath><clipPath id="6f45e0ace2"><path d="M 686 0.140625 L 1024 0.140625 L 1024 372 L 686 372 Z M 686 0.140625 " clip-rule="nonzero"/></clipPath><mask id="e1394fd53d"><g filter="url(#ff265c3e12)"><rect x="-102.45" width="1229.4" fill="#000000" y="-57.6" height="691.2" fill-opacity="0.24"/></g></mask><clipPath id="545467c8fc"><path d="M 0.542969 0.140625 L 338 0.140625 L 338 371.71875 L 0.542969 371.71875 Z M 0.542969 0.140625 " clip-rule="nonzero"/></clipPath><clipPath id="4b76b46165"><rect x="0" width="338" y="0" height="372"/></clipPath><clipPath id="ad387a3843"><path d="M 0 413 L 316 413 L 316 575.859375 L 0 575.859375 Z M 0 413 " clip-rule="nonzero"/></clipPath><mask id="8638b41ebd"><g filter="url(#ff265c3e12)"><rect x="-102.45" width="1229.4" fill="#000000" y="-57.6" height="691.2" fill-opacity="0.91"/></g></mask><clipPath id="605c49da83"><path d="M 0 75 L 256 75 L 256 162.859375 L 0 162.859375 Z M 0 75 " clip-rule="nonzero"/></clipPath><clipPath id="f795a78e09"><path d="M 167.960938 425.675781 L -120.355469 265.464844 L 35.488281 -14.988281 L 323.804688 145.222656 Z M 167.960938 425.675781 " clip-rule="nonzero"/></clipPath><clipPath id="eb249b78d7"><path d="M 167.960938 425.675781 L -120.355469 265.464844 L 35.488281 -14.988281 L 323.804688 145.222656 Z M 167.960938 425.675781 " clip-rule="nonzero"/></clipPath><clipPath id="b95b6e3db2"><rect x="0" width="316" y="0" height="163"/></clipPath><clipPath id="32fecd557c"><path d="M 829 0.140625 L 1024 0.140625 L 1024 176 L 829 176 Z M 829 0.140625 " clip-rule="nonzero"/></clipPath><mask id="c2aa2f07e0"><g filter="url(#ff265c3e12)"><rect x="-102.45" width="1229.4" fill="#000000" y="-57.6" height="691.2" fill-opacity="0.73"/></g></mask><clipPath id="e9b3bfc562"><path d="M 0.515625 0.140625 L 195 0.140625 L 195 175 L 0.515625 175 Z M 0.515625 0.140625 " clip-rule="nonzero"/></clipPath><clipPath id="93b07ba57c"><rect x="0" width="195" y="0" height="176"/></clipPath><mask id="3339ec8ad6"><g filter="url(#ff265c3e12)"><rect x="-102.45" width="1229.4" fill="#000000" y="-57.6" height="691.2" fill-opacity="0.41"/></g></mask><clipPath id="83ed828f0d"><path d="M 0 0.15625 L 27 0.15625 L 27 229 L 0 229 Z M 0 0.15625 " clip-rule="nonzero"/></clipPath><clipPath id="9729004e79"><rect x="0" width="28" y="0" height="231"/></clipPath></defs><g clip-path="url(#83831db3b6)"><path fill="#ffffff" d="M 0 0.140625 L 1024 0.140625 L 1024 575.859375 L 0 575.859375 Z M 0 0.140625 " fill-opacity="1" fill-rule="nonzero"/><path fill="#faf2e9" d="M 0 0.140625 L 1024 0.140625 L 1024 575.859375 L 0 575.859375 Z M 0 0.140625 " fill-opacity="1" fill-rule="nonzero"/></g><g clip-path="url(#6f45e0ace2)"><g mask="url(#e1394fd53d)"><g transform="matrix(1, 0, 0, 1, 686, 0.000000000000055289)"><g clip-path="url(#4b76b46165)"><g clip-path="url(#545467c8fc)"><path fill="#abb194" d="M 128.1875 -40.355469 C 184.632812 -65.445312 378.300781 -9.835938 417.9375 57.230469 C 457.574219 124.292969 460.667969 170.117188 436.25 237.265625 C 411.832031 304.414062 351.121094 353.167969 289.996094 362.28125 C 228.867188 371.394531 140.394531 389.707031 85.457031 322.644531 C 30.515625 255.578125 9.195312 249.390625 6.183594 221.964844 C 3.171875 194.535156 -12.128906 109.160156 27.507812 48.113281 C 67.144531 -12.929688 73.246094 -15.9375 128.1875 -40.355469 Z M 128.1875 -40.355469 " fill-opacity="1" fill-rule="nonzero"/></g></g></g></g></g><g clip-path="url(#ad387a3843)"><g mask="url(#8638b41ebd)"><g transform="matrix(1, 0, 0, 1, 0, 413)"><g clip-path="url(#b95b6e3db2)"><g clip-path="url(#605c49da83)"><g clip-path="url(#f795a78e09)"><g clip-path="url(#eb249b78d7)"><path fill="#003b31" d="M 233.222656 304.457031 C 238.882812 297.777344 243.515625 289.699219 246.839844 279.980469 C 268.296875 217.253906 252.515625 105.425781 177.355469 85.570312 C 145.410156 77.128906 108.066406 77.113281 75.164062 75.925781 C 25.855469 74.144531 -12.488281 87.238281 -40.96875 129.984375 C -63.5625 163.894531 -85.613281 207.859375 -81.113281 249.859375 C -78.667969 272.65625 -66.640625 295.292969 -46.421875 306.105469 C -29.773438 315.011719 -10.035156 315.0625 8.796875 316.464844 C 73.042969 321.25 182.691406 364.105469 233.222656 304.457031 " fill-opacity="1" fill-rule="nonzero"/></g></g></g></g></g></g></g><g clip-path="url(#32fecd557c)"><g mask="url(#c2aa2f07e0)"><g transform="matrix(1, 0, 0, 1, 829, 0.000000000000055289)"><g clip-path="url(#93b07ba57c)"><g clip-path="url(#e9b3bfc562)"><path fill="#85987d" d="M 268.757812 19.785156 C 269.722656 -33.742188 191.082031 -85.847656 142.621094 -87.613281 C 112.109375 -88.71875 86.839844 -72.058594 66.886719 -51.398438 C 47.535156 -31.367188 28.066406 -9.953125 14.996094 14.84375 C 1.480469 40.503906 -5.394531 69.996094 7.222656 97.324219 C 18.0625 120.796875 39.023438 139.527344 61.445312 151.722656 C 109.5 177.859375 173.453125 182.726562 224 161.183594 C 250.644531 149.824219 269.667969 131.355469 275.136719 102.199219 C 280.265625 74.84375 268.257812 47.613281 268.757812 19.785156 Z M 268.757812 19.785156 " fill-opacity="1" fill-rule="nonzero"/></g></g></g></g></g><g mask="url(#3339ec8ad6)"><g transform="matrix(1, 0, 0, 1, 0, 47)"><g clip-path="url(#9729004e79)"><g clip-path="url(#83ed828f0d)"><path fill="#abb194" d="M -63.113281 0.3125 C -73.003906 0.871094 -82.621094 3.796875 -92.09375 6.863281 C -108.257812 12.019531 -125.398438 18.984375 -133.898438 33.617188 C -140.167969 44.625 -140.445312 58 -139.472656 70.679688 C -138.496094 83.363281 -136.546875 96.179688 -139.054688 108.582031 C -141.003906 118.335938 -145.601562 127.113281 -147.972656 136.730469 C -150.199219 145.785156 -150.339844 155.261719 -149.78125 164.597656 C -149.363281 172.539062 -148.25 180.761719 -144.488281 187.867188 C -140.863281 194.417969 -135.152344 199.710938 -129.160156 204.171875 C -116.199219 213.785156 -101.429688 220.753906 -85.824219 225.074219 C -74.675781 228.136719 -62.832031 229.949219 -51.40625 228.277344 C -36.21875 226.046875 -22.425781 218.105469 -10.441406 208.492188 C -1.523438 201.246094 6.699219 193.023438 12.550781 182.992188 C 17.847656 173.933594 20.910156 163.902344 23.140625 153.589844 C 28.019531 131.15625 28.4375 107.328125 22.164062 85.3125 C 17.707031 69.707031 10.183594 55.355469 2.65625 41 C -4.171875 28.042969 -14.203125 14.527344 -21.308594 10.765625 C -36.636719 2.402344 -38.585938 0.3125 -63.113281 0.3125 Z M -63.113281 0.3125 " fill-opacity="1" fill-rule="nonzero"/></g></g></g></g></svg>